<!-- Generator: Adobe Illustrator 25.2.3, SVG Export Plug-In  -->
<svg version="1.1" xmlns="http://www.w3.org/2000/svg" xmlns:xlink="http://www.w3.org/1999/xlink" x="0px" y="0px" width="409.3px"
	 height="68.7px" viewBox="0 0 409.3 68.7" style="overflow:visible;enable-background:new 0 0 409.3 68.7;" xml:space="preserve">
<style type="text/css">
	.st0{fill:#FFBDBF;}
</style>
<defs>
</defs>
<path class="st0" d="M45.6,19v48.5H34.7v-9.7c-3.6,6.7-9.8,10.8-17.7,10.8C3.7,68.7,0,57.7,0,43.3c0-14.5,3.7-25.4,17-25.4
	c7.9,0,14.1,4.2,17.7,10.8V19H45.6z M14.7,14.1L1.9,0h17.9l9.5,14.1H14.7z M34.7,43.3c0-6.6-6.4-11.5-14.9-11.5
	C11.2,31.8,5,36.7,5,43.3c0,6.6,6.3,11.5,14.8,11.5C28.4,54.8,34.7,49.8,34.7,43.3z"/>
<path class="st0" d="M83.4,68.6V0.2h10.8v68.5H83.4z"/>
<path class="st0" d="M147.4,19v48.5h-10.8v-9.7c-3.6,6.7-9.8,10.8-17.7,10.8c-13.3,0-17-10.9-17-25.4s3.7-25.4,17-25.4
	c7.9,0,14.1,4.2,17.7,10.8V19H147.4z M136.5,43.2c0-6.6-6.4-11.5-14.9-11.5c-8.6,0-14.8,4.9-14.8,11.5c0,6.6,6.3,11.5,14.8,11.5
	C130.2,54.7,136.5,49.8,136.5,43.2z"/>
<path class="st0" d="M218.8,48h11.8c-2.1,12.1-12.5,20.6-25.6,20.6c-14.9,0-19.8-10.9-19.8-25.4c0-14.5,4.9-25.4,19.8-25.4
	c13.1,0,23.5,8.6,25.6,20.6h-11.8c-2.2-4.1-7.5-6.8-13.8-6.8c-8.6,0-14.9,4.9-14.9,11.5c0,6.6,6.4,11.5,14.9,11.5
	C211.3,54.7,216.6,52.1,218.8,48z"/>
<path class="st0" d="M283.8,19v48.5h-10.8v-9.7c-3.6,6.7-9.8,10.8-17.7,10.8c-13.3,0-17-10.9-17-25.4s3.7-25.4,17-25.4
	c7.9,0,14.1,4.2,17.7,10.8V19H283.8z M272.9,43.2c0-6.6-6.4-11.5-14.9-11.5c-8.6,0-14.8,4.9-14.8,11.5c0,6.6,6.3,11.5,14.8,11.5
	C266.6,54.7,272.9,49.8,272.9,43.2z"/>
<path class="st0" d="M313.6,19.4v17.1c-11.5,0-17.7,4.2-17.7,11.8v20.3h-4.5V20.1h4.5v12.1C299.7,24.2,305.9,19.4,313.6,19.4z"/>
<path class="st0" d="M339.7,33.7v16.4c0,3.2,2,4.8,6.2,4.8h6.9v13.7h-1.8c-10.5,0-15.9-5-15.9-15.1V33.7h-15.8V20.1h15.8V8.9l4.6-3
	v14.3h14.1v13.6H339.7z"/>
<path class="st0" d="M409,47.3h-40.8c2,5.2,7.6,8.6,15.3,8.6c5.7,0,10.7-1.6,12.9-3.7h12c-3.6,9.8-13.3,16.4-25.2,16.4
	c-15,0-19.9-10.9-19.9-25.4s4.9-25.4,19.8-25.4s26.1,10.8,26.1,25.7C409.3,44.7,409.2,46.2,409,47.3z M398.1,39
	c-1.9-5.2-7.8-8.5-15-8.5c-7.1,0-12.8,3.3-14.8,8.5H398.1z"/>
</svg>
