<svg xmlns="http://www.w3.org/2000/svg" width="198.505" height="66.895" viewBox="0 0 198.505 66.895">
  <g>
    <polygon points="20.817 10.867 4.883 15.723 0 25.448 1.717 38.579 8.385 50.546 18.165 60.367 28.483 61.737 40.13 61.792 54.324 49.555 53.508 36.911 51.185 24.725 34.069 10.737 20.817 10.867" fill="#ffbdbf"/>
    <polygon points="165.829 0 146.353 7.222 138.438 16.077 138.125 38.625 146.839 53.799 153.916 63.131 171.934 66.895 189.232 61.204 197.815 51.604 198.505 29.769 194.209 14.888 181.234 5.022 165.829 0" fill="#ffbdbf"/>
    <polygon points="113.032 54.12 99.164 60.676 87.089 57.512 75.255 52.789 70.274 34.609 75.348 24.058 81.063 15.271 94.511 10.528 104.921 13.268 115.483 20.155 122.698 30.593 121.674 41.293 113.032 54.12" fill="#ffbdbf"/>
  </g>
</svg>
