<svg xmlns="http://www.w3.org/2000/svg" width="73.1" height="13.424" viewBox="0 0 73.1 13.424">
  <g style="isolation: isolate">
    <g style="isolation: isolate">
      <path d="M3.313,2.878V3.915h2.75V5.646H3.313V13.2h-.5V5.646H0V3.915H2.816v-1.4C2.816.839,3.691,0,5.421,0h.642V1.712H4.753C3.807,1.712,3.314,2.112,3.313,2.878Z" fill="#fbafb9"/>
      <path d="M17.819,8.562c0,2.768-1.371,4.862-4.175,4.862-2.824,0-4.195-2.094-4.195-4.862S10.82,3.7,13.644,3.7C16.448,3.7,17.819,5.792,17.819,8.562Zm-.532,0c0-1.768-1.566-3.1-3.643-3.1C11.551,5.464,10,6.793,10,8.561s1.548,3.1,3.642,3.1C15.72,11.656,17.287,10.326,17.287,8.561Z" fill="#fbafb9"/>
      <path d="M29.447,8.562c0,2.768-1.371,4.862-4.176,4.862-2.823,0-4.194-2.094-4.194-4.862S22.448,3.7,25.271,3.7C28.076,3.7,29.447,5.792,29.447,8.562Zm-.532,0c0-1.768-1.566-3.1-3.644-3.1s-3.641,1.329-3.641,3.1,1.548,3.1,3.641,3.1C27.348,11.656,28.915,10.326,28.915,8.561Z" fill="#fbafb9"/>
      <path d="M41.762.092V13.206H40.524V10.82a4.224,4.224,0,0,1-3.934,2.6c-2.659,0-3.885-2.094-3.885-4.862S33.931,3.7,36.59,3.7A4.222,4.222,0,0,1,40.524,6.3V.092ZM40.524,8.561c0-1.768-1.567-3.1-3.643-3.1-2.094,0-3.641,1.329-3.641,3.1s1.547,3.1,3.641,3.1C38.957,11.656,40.524,10.326,40.524,8.561Z" fill="#fbafb9"/>
      <path d="M53.388,8.562c0,2.768-1.371,4.862-4.176,4.862-2.823,0-4.194-2.094-4.194-4.862S46.389,3.7,49.212,3.7C52.017,3.7,53.388,5.792,53.388,8.562Zm-.534,0c0-1.768-1.565-3.1-3.642-3.1-2.093,0-3.642,1.329-3.642,3.1s1.547,3.1,3.642,3.1C51.287,11.656,52.854,10.326,52.854,8.561Z" fill="#fbafb9"/>
      <path d="M60.785,3.771V5.9c-2.3,0-3.661,1.092-3.661,2.9v4.409h-.478V3.917h.478V6.375A3.856,3.856,0,0,1,60.785,3.771Z" fill="#fbafb9"/>
      <path d="M73.1,3.917V13.2H71.861V10.818a4.225,4.225,0,0,1-3.934,2.605c-2.658,0-3.884-2.094-3.884-4.862S65.269,3.7,67.927,3.7A4.222,4.222,0,0,1,71.861,6.3V3.917ZM71.861,8.561c0-1.768-1.566-3.1-3.642-3.1-2.094,0-3.642,1.329-3.642,3.1s1.548,3.1,3.642,3.1C70.3,11.656,71.861,10.326,71.861,8.561Z" fill="#fbafb9"/>
    </g>
  </g>
</svg>
