<svg xmlns="http://www.w3.org/2000/svg" xmlns:xlink="http://www.w3.org/1999/xlink" width="461.525" height="61.067" viewBox="0 0 461.525 61.067">
  <defs>
    <clipPath id="a" transform="translate(-1.72 -5.655)">
      <rect width="473.824" height="66.781" fill="none"/>
    </clipPath>
  </defs>
  <g>
    <g clip-path="url(#a)">
      <g style="isolation: isolate">
        <g style="isolation: isolate">
          <path d="M23.787,28.335c0,4.74-3.743,8.135-8.657,8.135H1.72V6.46H14.565c4.566,0,8.087,3.221,8.087,7.7a7.3,7.3,0,0,1-3.869,6.481A8.337,8.337,0,0,1,23.787,28.335ZM4.168,18.2H13.26c2.3,0,3.869-1,3.869-2.655,0-1.562-1.476-2.52-3.869-2.52H4.168ZM18.217,26.95c0-1.915-1.7-3.089-4.348-3.089h-9.7v6.045h9.7C16.52,29.906,18.217,28.775,18.217,26.95Z" transform="translate(-1.72 -5.655)" fill="#f7babd"/>
        </g>
      </g>
      <g style="isolation: isolate">
        <g style="isolation: isolate">
          <path d="M56.37,6.178V24.531c0,6.959-5.437,12.178-12.526,12.178-7.134,0-9.625-5.219-9.625-12.178V6.178h2.452V24.445c0,3.172,3.046,5.566,7.176,5.566,4.087,0,7.133-2.394,7.133-5.566V6.178Z" transform="translate(-1.72 -5.655)" fill="#f7babd"/>
        </g>
        <g style="isolation: isolate">
          <path d="M86.466,36.191H79.942l-6.437-9.4h-6.48v9.393H64.577V6.178H75.42c6.045,0,10.655,4.435,10.655,10.307a10.081,10.081,0,0,1-6.525,9.57ZM80.5,16.485c0-2.26-2-3.74-5.218-3.74H67.021v7.482h8.265C78.506,20.227,80.5,18.743,80.5,16.485Z" transform="translate(-1.72 -5.655)" fill="#f7babd"/>
        </g>
      </g>
      <g style="isolation: isolate">
        <g style="isolation: isolate">
          <path d="M127.43,19.073V36.466H123.3v-6c-2.263,4.131-6.006,6.524-11.4,6.524-9.045,0-12.972-6.7-12.972-15.529S102.852,5.931,111.9,5.931c7.264,0,13.222,4.308,14.832,10.266h-6.306a10.855,10.855,0,0,0-8.526-3.564c-5.872,0-10.35,3.782-10.35,8.83s4.478,8.831,10.35,8.831c4.57,0,8.265-2,9.744-4.958h-9.44V19.073Z" transform="translate(-1.72 -5.655)" fill="#f7babd"/>
        </g>
        <g style="isolation: isolate">
          <path d="M154.628,29.906v6.567H135.65V6.46h18.76v6.568H138.1V18.2h14.876v6.35H138.1v5.353Z" transform="translate(-1.72 -5.655)" fill="#f7babd"/>
        </g>
      </g>
      <g style="isolation: isolate">
        <g style="isolation: isolate">
          <path d="M189.124,36.191H182.6l-6.437-9.4h-6.48v9.393h-2.448V6.178h10.843c6.045,0,10.655,4.435,10.655,10.307a10.081,10.081,0,0,1-6.525,9.57Zm-5.962-19.706c0-2.26-2-3.74-5.218-3.74h-8.265v7.482h8.265C181.164,20.227,183.162,18.743,183.162,16.485Z" transform="translate(-1.72 -5.655)" fill="#f7babd"/>
        </g>
      </g>
      <g style="isolation: isolate">
        <g style="isolation: isolate">
          <path d="M242.151,24.771h5.74c-1.436,7.134-7.612,12.22-15.485,12.22-9.044,0-12.972-6.7-12.972-15.528s3.924-15.528,12.972-15.528c7.873,0,14.049,5.088,15.485,12.221h-5.74c-1.48-3.26-5.179-5.523-9.745-5.523-5.871,0-10.35,3.782-10.35,8.83s4.479,8.831,10.35,8.831C236.972,30.294,240.671,28.034,242.151,24.771Z" transform="translate(-1.72 -5.655)" fill="#f7babd"/>
        </g>
        <g style="isolation: isolate">
          <path d="M282.423,21.184c0,8.831-4.294,15.529-13.338,15.529s-12.972-6.7-12.972-15.529,3.924-15.529,12.972-15.529S282.423,12.354,282.423,21.184Zm-2.988,0c0-5.049-4.479-8.831-10.35-8.831s-10.35,3.782-10.35,8.831,4.478,8.83,10.35,8.83S279.435,26.229,279.435,21.181Z" transform="translate(-1.72 -5.655)" fill="#f7babd"/>
        </g>
      </g>
      <g style="isolation: isolate">
        <g style="isolation: isolate">
          <path d="M324.484,6.417V36.426h-5.349V16.419h-.957l-7,14.136H305.87l-6.959-14.136h-.958V36.426h-2.448V6.417h4.841l7.569,14.7h.957l7.609-14.7Z" transform="translate(-1.72 -5.655)" fill="#f7babd"/>
        </g>
        <g style="isolation: isolate">
          <path d="M354.2,16.485a10.276,10.276,0,0,1-10.655,10.309h-8.395v9.393H332.7V6.178h10.843C349.588,6.178,354.2,10.613,354.2,16.485Zm-5.566,0c0-2.26-2-3.74-5.219-3.74h-8.265v7.482h8.265C346.628,20.227,348.631,18.743,348.631,16.485Z" transform="translate(-1.72 -5.655)" fill="#f7babd"/>
        </g>
      </g>
      <g style="isolation: isolate">
        <g style="isolation: isolate">
          <path d="M394.337,36.473H388.68l-2.085-5.3H371.806l-2.089,5.305h-3.231L377.924,6.46h5.015ZM384.024,24.6l-4.262-10.872h-1.175L374.327,24.6Z" transform="translate(-1.72 -5.655)" fill="#f7babd"/>
        </g>
      </g>
      <g style="isolation: isolate">
        <g style="isolation: isolate">
          <path d="M427.617,7.111V36.427h-5.946L408.2,17.859h-.765V36.427h-2.392V7.111h3.072l13.512,18.567h.723V7.111Z" transform="translate(-1.72 -5.655)" fill="#f7babd"/>
        </g>
      </g>
      <g style="isolation: isolate">
        <g style="isolation: isolate">
          <path d="M463.245,7.138,452.113,26.769v9.686h-2.391V26.769L438.547,7.138H441.7L448.882,19.2h.893l7.181-12.067Z" transform="translate(-1.72 -5.655)" fill="#f7babd"/>
        </g>
      </g>
    </g>
    <path d="M409.117,50.762l-4.6,1.294-1.3,2.876.431,3.739,2.013,3.451L408.393,65l3.02.431h3.3l4.17-3.6-.288-3.6-.719-3.6L413,50.618Z" transform="translate(-1.72 -5.655)" fill="#f7babd"/>
    <path d="M445.206,49.611l-2.3,2.587v6.471l2.445,4.314,2.013,2.732,5.177,1.007,5.033-1.582,2.445-2.732.144-6.327-1.15-4.17-3.739-2.876L450.815,47.6Z" transform="translate(-1.72 -5.655)" fill="#f7babd"/>
    <path d="M435.573,63.129,431.69,65l-3.595-.863L424.788,62.7l-1.438-5.179,1.438-3.02,1.582-2.445,3.88-1.435,3.02.863,3.02,1.869,2.013,3.02-.288,3.02Z" transform="translate(-1.72 -5.655)" fill="#f7babd"/>
  </g>
</svg>
