<svg xmlns="http://www.w3.org/2000/svg" width="456.449" height="59.776" viewBox="0 0 456.449 59.776">
  <g>
    <path d="M24.96,29.812c0,4.974-3.927,8.535-9.083,8.535H1.805V6.858H15.284c4.79,0,8.486,3.379,8.486,8.079a7.658,7.658,0,0,1-4.061,6.8A8.747,8.747,0,0,1,24.96,29.812ZM4.374,19.18h9.54c2.416,0,4.06-1.051,4.06-2.786,0-1.64-1.549-2.645-4.06-2.645H4.374Zm14.742,9.178c0-2.009-1.781-3.242-4.563-3.242H4.374V31.46H14.553C17.335,31.46,19.116,30.272,19.116,28.358Z" transform="translate(-1.805 -6.013)" fill="#f7babd"/>
    <g>
      <path d="M57.178,6.561V25.82c0,7.3-5.7,12.778-13.144,12.778-7.485,0-10.1-5.475-10.1-12.778V6.561h2.572V25.729c0,3.33,3.2,5.841,7.531,5.841,4.289,0,7.485-2.511,7.485-5.841V6.561Z" transform="translate(-1.805 -6.013)" fill="#f7babd"/>
      <path d="M89.936,38.054H83.09l-6.755-9.86h-6.8v9.857H66.967V6.561H78.345c6.343,0,11.18,4.654,11.18,10.815a10.576,10.576,0,0,1-6.846,10.042ZM83.68,17.376c0-2.371-2.1-3.923-5.476-3.923H69.532V21.3H78.2C81.583,21.3,83.68,19.747,83.68,17.376Z" transform="translate(-1.805 -6.013)" fill="#f7babd"/>
    </g>
    <g>
      <path d="M128.011,20.093v18.25h-4.335v-6.3c-2.374,4.335-6.3,6.847-11.96,6.847-9.49,0-13.612-7.029-13.612-16.3s4.118-16.3,13.612-16.3c7.623,0,13.875,4.521,15.564,10.773h-6.617c-1.781-2.233-5.065-3.741-8.947-3.741-6.161,0-10.86,3.97-10.86,9.267s4.7,9.266,10.86,9.266c4.8,0,8.673-2.1,10.225-5.2h-9.905V20.093Z" transform="translate(-1.805 -6.013)" fill="#f7babd"/>
      <path d="M157.684,31.46v6.891H137.77V6.858h19.685v6.891H140.339V19.18h15.61v6.663h-15.61V31.46Z" transform="translate(-1.805 -6.013)" fill="#f7babd"/>
    </g>
    <path d="M190.253,38.054h-6.845l-6.755-9.86h-6.8v9.857h-2.569V6.561h11.378c6.344,0,11.181,4.654,11.181,10.815A10.577,10.577,0,0,1,183,27.418ZM184,17.376c0-2.371-2.1-3.923-5.476-3.923h-8.672V21.3h8.672C181.9,21.3,184,19.747,184,17.376Z" transform="translate(-1.805 -6.013)" fill="#f7babd"/>
    <g>
      <path d="M242.475,26.071H248.5C246.992,33.556,240.511,38.9,232.25,38.9c-9.491,0-13.612-7.028-13.612-16.294S222.755,6.306,232.25,6.306c8.261,0,14.742,5.339,16.249,12.824h-6.024c-1.553-3.421-5.434-5.8-10.225-5.8-6.162,0-10.861,3.97-10.861,9.267s4.7,9.266,10.861,9.266C237.041,31.867,240.922,29.5,242.475,26.071Z" transform="translate(-1.805 -6.013)" fill="#f7babd"/>
      <path d="M284.513,22.308c0,9.266-4.506,16.294-14,16.294S256.9,31.574,256.9,22.308s4.117-16.3,13.612-16.3S284.513,13.042,284.513,22.308Zm-3.136,0c0-5.3-4.7-9.266-10.86-9.266s-10.861,3.969-10.861,9.266,4.7,9.266,10.861,9.266S281.377,27.6,281.377,22.3Z" transform="translate(-1.805 -6.013)" fill="#f7babd"/>
    </g>
    <g>
      <path d="M324.137,6.812V38.3h-5.613V17.307h-1l-7.348,14.834H304.6l-7.3-14.834h-1v21h-2.568V6.812h5.08l7.942,15.427h1l7.984-15.427Z" transform="translate(-1.805 -6.013)" fill="#f7babd"/>
      <path d="M356.675,17.376c0,6.161-4.837,10.818-11.181,10.818h-8.809v9.857h-2.569V6.561h11.378C351.838,6.561,356.675,11.215,356.675,17.376Zm-5.842,0c0-2.371-2.1-3.923-5.476-3.923h-8.672V21.3h8.672C348.732,21.3,350.833,19.747,350.833,17.376Z" transform="translate(-1.805 -6.013)" fill="#f7babd"/>
    </g>
    <path d="M390.463,38.351h-5.936l-2.188-5.567H366.82l-2.192,5.567h-3.39l12-31.493H378.5ZM379.641,25.888,375.169,14.48h-1.232l-4.472,11.408Z" transform="translate(-1.805 -6.013)" fill="#f7babd"/>
    <path d="M423.212,6.812V38.3h-6.386L402.355,18.358h-.822V38.3h-2.569V6.812h3.3l14.514,19.944h.776V6.812Z" transform="translate(-1.805 -6.013)" fill="#f7babd"/>
    <path d="M458.253,6.843,446.3,27.928v10.4h-2.568v-10.4l-12-21.085h3.391L442.826,19.8h.959L451.5,6.843Z" transform="translate(-1.805 -6.013)" fill="#f7babd"/>
    <polygon points="401.329 43.952 396.806 45.33 395.42 48.091 395.906 51.82 397.8 55.218 400.576 58.003 403.507 58.393 406.812 58.408 410.84 54.936 410.609 51.347 409.952 47.886 405.092 43.915 401.329 43.952" fill="#f7babd"/>
    <polygon points="436.868 42.938 434.635 45.436 434.546 51.8 437.005 56.081 439.003 58.715 444.088 59.776 448.969 58.171 451.39 55.462 451.587 49.301 450.374 45.1 446.713 42.317 442.364 40.899 436.868 42.938" fill="#f7babd"/>
    <polygon points="427.363 56.172 423.449 58.022 420.041 57.13 416.702 55.797 415.295 50.667 416.73 47.688 418.34 45.209 422.137 43.87 425.075 44.644 428.055 46.588 430.091 49.533 429.802 52.552 427.363 56.172" fill="#f7babd"/>
  </g>
</svg>
