<svg xmlns="http://www.w3.org/2000/svg" width="295.773" height="33.644" viewBox="0 0 295.773 33.644">
  <g style="isolation: isolate">
    <path d="M8.275,7.866v4.26c-4.589,0-7.319,2.183-7.319,5.789v8.813H0V8.158H.956v4.914A7.714,7.714,0,0,1,8.275,7.866Z" fill="#fbafb9"/>
    <path d="M33.405,8.158V26.725H30.931v-4.77a8.449,8.449,0,0,1-7.866,5.207c-5.315,0-7.765-4.186-7.765-9.721s2.45-9.72,7.765-9.72a8.444,8.444,0,0,1,7.866,5.206V8.158Zm-2.474,9.283c0-3.534-3.133-6.19-7.283-6.19-4.186,0-7.28,2.656-7.28,6.19s3.094,6.19,7.28,6.19C27.8,23.631,30.931,20.972,30.931,17.441Z" fill="#fbafb9"/>
    <path d="M46.223,11.615v9.4c0,1.49.98,2.218,2.911,2.218H51.9v3.5H50.436c-3.457,0-5.206-1.673-5.206-5.025V11.618H39.708V8.158H45.23V3.315l1-.619V8.154H52.27v3.461Z" fill="#fbafb9"/>
    <path d="M75.858,15.256V26.725H73.384V16.239c0-3.023-2.405-4.988-6.081-4.988-3.785,0-6.336,2-6.336,5.061V26.725h-.956V.511h.956V12.49a7.647,7.647,0,0,1,7.356-4.769A7.1,7.1,0,0,1,75.858,15.256Z" fill="#fbafb9"/>
    <path d="M101.01,18.753H83.97c.693,2.838,3.531,4.842,7.32,4.842a8.968,8.968,0,0,0,6.372-2.222h3.024a10,10,0,0,1-9.43,5.789c-5.68,0-8.421-4.186-8.421-9.721s2.744-9.723,8.388-9.723a9.591,9.591,0,0,1,9.866,9.8C101.089,17.915,101.05,18.352,101.01,18.753Zm-2.544-2.659c-.655-2.839-3.6-4.806-7.243-4.806-3.68,0-6.555,1.964-7.247,4.806Z" fill="#fbafb9"/>
    <path d="M116.382,7.866v4.26c-4.59,0-7.319,2.183-7.319,5.789v8.813h-.956V8.158h.956v4.914A7.714,7.714,0,0,1,116.382,7.866Z" fill="#fbafb9"/>
    <path d="M153.933,21.451c0,3.568-3.531,5.717-8.227,5.717-4.809,0-6.64-2.659-6.64-6.227h.956c0,1.637,2.365,2.8,5.717,2.8s5.643-.983,5.643-2.367-2.258-2.04-6.3-2.587c-4.3-.619-5.692-2.365-5.692-5.57,0-3.458,1.9-5.5,6.272-5.5,4.66,0,7.939,2.51,7.939,5.971h-2.55c0-1.494-2.186-2.55-5.389-2.55-3.093,0-5.279.911-5.279,2.222,0,1.239,2.149,1.964,6.117,2.511C150.8,16.458,153.927,18.134,153.933,21.451Z" fill="#fbafb9"/>
    <path d="M166.749,11.615v9.4c0,1.49.98,2.218,2.911,2.218h2.769v3.5h-1.467c-3.457,0-5.206-1.673-5.206-5.025V11.618h-5.522V8.158h5.522V3.315l1-.619V8.154H172.8v3.461Z" fill="#fbafb9"/>
    <path d="M198.643,8.158V26.725h-2.474v-4.77a8.449,8.449,0,0,1-7.866,5.207c-5.316,0-7.765-4.186-7.765-9.721s2.449-9.72,7.765-9.72a8.444,8.444,0,0,1,7.866,5.206V8.158Zm-2.474,9.283c0-3.534-3.133-6.19-7.283-6.19-4.186,0-7.28,2.656-7.28,6.19s3.094,6.19,7.28,6.19C193.036,23.631,196.169,20.972,196.169,17.441Z" fill="#fbafb9"/>
    <path d="M222.9,8.158,212.629,33.644h-1.757l3.275-6.919h-.98l-7.5-18.567H206.8l6.19,14.38h.8l6.19-14.38Z" fill="#fbafb9"/>
    <path d="M249.169,2.515a2.321,2.321,0,0,1-4.587,0c0-1.13,1.891-2,3.2-2S249.169,1.385,249.169,2.515Zm-2.016,24.213V8.158h.956v18.57Z" fill="#fbafb9"/>
    <path d="M272.7,15.256V26.728H270.23V16.242c0-3.023-2.4-4.988-6.081-4.988-3.785,0-6.336,2-6.336,5.06V26.728h-.956V8.158h.956v4.259a7.639,7.639,0,0,1,7.356-4.7A7.1,7.1,0,0,1,272.7,15.256Z" fill="#fbafb9"/>
    <path d="M295.773,7.21c0,5.607-6.736,5.9-6.736,9.866v1.163H287.6V17.073c0-5.242,6.627-5.789,6.627-9.72,0-2.147-3.546-3.676-6.457-3.676-3.024,0-5.316,1.635-5.316,3.785h-2.768c0-4.184,3.424-7.462,8.048-7.462C292.279,0,295.776,3.1,295.773,7.21Zm-5.388,16.2a2.67,2.67,0,0,1-5.313,0c0-1.348,2.037-2.368,3.567-2.368S290.388,22.064,290.385,23.415Z" fill="#fbafb9"/>
  </g>
</svg>
