<svg xmlns="http://www.w3.org/2000/svg" width="39.15" height="13.332" viewBox="0 0 39.15 13.332">
  <g style="isolation: isolate">
    <g style="isolation: isolate">
      <path d="M13.866,3.825l-3.224,9.287H9.02L6.816,6.3h-.51l-2.222,6.81h-.86L0,3.825H.534l2.568,6.9h.4l2.348-6.9H7.145l2.331,6.9h.4l2.568-6.9Z" fill="#fbafb9"/>
      <path d="M25.487,8.47c0,2.768-1.371,4.862-4.175,4.862-2.824,0-4.195-2.094-4.195-4.862s1.371-4.864,4.2-4.864C24.116,3.606,25.487,5.7,25.487,8.47Zm-.532,0c0-1.768-1.566-3.1-3.643-3.1-2.093,0-3.642,1.329-3.642,3.1s1.547,3.1,3.642,3.1C23.387,11.564,24.955,10.234,24.955,8.469Z" fill="#fbafb9"/>
      <path d="M28.745,13.112V0h1.237V13.112Z" fill="#fbafb9"/>
      <path d="M36.125,5.555v4.7c0,.745.491,1.109,1.457,1.109h1.384v1.748h-.733c-1.73,0-2.6-.837-2.6-2.512V5.556H32.867V3.825h2.762V1.4l.5-.309v2.73H39.15V5.555Z" fill="#fbafb9"/>
    </g>
  </g>
</svg>
